<svg width="20" height="20" viewBox="0 0 20 20" fill="none" xmlns="http://www.w3.org/2000/svg">
<g clip-path="url(#clip0_0_181)">
<path opacity="0.7" fill-rule="evenodd" clip-rule="evenodd" d="M10 8.9C9.4 8.9 8.9 9.4 8.9 10C8.9 10.6 9.4 11.1 10 11.1C10.6 11.1 11.1 10.6 11.1 10C11.1 9.4 10.6 8.9 10 8.9V8.9ZM10 0C4.5 0 0 4.5 0 10C0 15.5 4.5 20 10 20C15.5 20 20 15.5 20 10C20 4.5 15.5 0 10 0V0ZM12.2 12.2L4 16L7.8 7.8L16 4L12.2 12.2V12.2Z" fill="white"/>
</g>
<defs>
<clipPath id="clip0_0_181">
<rect width="20" height="20" fill="white"/>
</clipPath>
</defs>
</svg>
