<svg width="18" height="18" viewBox="0 0 18 18" fill="none" xmlns="http://www.w3.org/2000/svg">
<g clip-path="url(#clip0_0_198)">
<path opacity="0.7" fill-rule="evenodd" clip-rule="evenodd" d="M16 0H2C0.9 0 0 0.9 0 2V16C0 17.1 0.9 18 2 18H16C17.1 18 18 17.1 18 16V2C18 0.9 17.1 0 16 0V0ZM16 12H12C12 13.7 10.7 15 9 15C7.3 15 6 13.7 6 12H2V2H16V12V12ZM13 7H11V4H7V7H5L9 11L13 7V7Z" fill="white"/>
</g>
<defs>
<clipPath id="clip0_0_198">
<rect width="18" height="18" fill="white"/>
</clipPath>
</defs>
</svg>
