<svg width="22" height="22" viewBox="0 0 22 22" fill="none" xmlns="http://www.w3.org/2000/svg">
<path fill-rule="evenodd" clip-rule="evenodd" d="M2 4H0V20C0 21.1 0.9 22 2 22H18V20H2V4ZM20 0H6C4.9 0 4 0.9 4 2V16C4 17.1 4.9 18 6 18H20C21.1 18 22 17.1 22 16V2C22 0.9 21.1 0 20 0ZM20 9C20 12.866 16.866 16 13 16C9.13401 16 6 12.866 6 9C6 5.13401 9.13401 2 13 2C16.866 2 20 5.13401 20 9ZM13 11C14.1046 11 15 10.1046 15 9C15 7.89543 14.1046 7 13 7C11.8954 7 11 7.89543 11 9C11 10.1046 11.8954 11 13 11Z" fill="white"/>
</svg>
